<?xml version="1.0" encoding="utf-8"?>
<!-- Generator: Adobe Illustrator 27.5.0, SVG Export Plug-In . SVG Version: 6.00 Build 0)  -->
<svg version="1.1" id="Background" xmlns="http://www.w3.org/2000/svg" xmlns:xlink="http://www.w3.org/1999/xlink" x="0px" y="0px"
	 viewBox="0 0 1000 1000" style="enable-background:new 0 0 1000 1000;" xml:space="preserve">
<g>
	<path style="fill:#999999;" d="M2.446,0L2.048,0C0.859,83.333,0.524,166.666,0.114,249.999c-0.308,83.333,0.089,166.667,0.257,250
		L1.482,1000l0.398,0l1.677-499.999c0.262-83.333,0.753-166.666,0.54-250C3.781,166.668,3.54,83.334,2.446,0z"/>
	<path style="fill:#999999;" d="M26.735,0l-0.399,0c-1.188,83.333-1.523,166.666-1.934,249.999
		c-0.308,83.333,0.089,166.667,0.257,250L25.771,1000l0.398,0l1.677-499.999c0.262-83.333,0.753-166.666,0.54-250
		C28.07,166.668,27.829,83.334,26.735,0z"/>
	<path style="fill:#999999;" d="M51.024,0l-0.199,0l-0.199,0c-1.189,83.333-1.523,166.666-1.934,249.999
		c-0.308,83.333,0.089,166.667,0.257,250L50.061,1000l0.199,0h0.199l1.677-499.999c0.262-83.333,0.753-166.666,0.54-250
		C52.359,166.668,52.118,83.334,51.024,0z"/>
	<path style="fill:#999999;" d="M75.313,0l-0.398,0c-1.188,83.333-1.523,166.666-1.934,249.999
		c-0.308,83.333,0.089,166.667,0.257,250L74.35,1000l0.398,0l1.677-499.999c0.262-83.333,0.754-166.666,0.54-250
		C76.648,166.668,76.407,83.334,75.313,0z"/>
	<path style="fill:#999999;" d="M99.602,0l-0.398,0c-1.188,83.333-1.523,166.666-1.934,249.999
		c-0.308,83.333,0.089,166.667,0.257,250L98.639,1000l0.398,0l1.676-499.999c0.262-83.333,0.754-166.666,0.54-250
		C100.937,166.668,100.696,83.334,99.602,0z"/>
	<path style="fill:#999999;" d="M123.891,0l-0.398,0c-1.189,83.333-1.523,166.666-1.934,249.999
		c-0.308,83.333,0.089,166.667,0.257,250L122.928,1000l0.398,0l1.677-499.999c0.262-83.333,0.754-166.666,0.54-250
		C125.226,166.668,124.985,83.334,123.891,0z"/>
	<path style="fill:#999999;" d="M148.18,0l-0.199,0l-0.199,0c-1.188,83.333-1.524,166.666-1.934,249.999
		c-0.308,83.333,0.089,166.667,0.257,250L147.217,1000l0.199,0h0.199l1.677-499.999c0.262-83.333,0.753-166.666,0.54-250
		C149.515,166.668,149.274,83.334,148.18,0z"/>
	<path style="fill:#999999;" d="M172.469,0l-0.398,0c-1.189,83.333-1.523,166.666-1.934,249.999
		c-0.308,83.333,0.089,166.667,0.257,250L171.506,1000l0.398,0l1.677-499.999c0.262-83.333,0.753-166.666,0.54-250
		C173.804,166.668,173.564,83.334,172.469,0z"/>
	<path style="fill:#999999;" d="M196.758,0l-0.398,0c-1.188,83.333-1.523,166.666-1.934,249.999
		c-0.308,83.333,0.089,166.667,0.257,250L195.795,1000l0.399,0l1.677-499.999c0.262-83.333,0.753-166.666,0.54-250
		C198.093,166.668,197.852,83.334,196.758,0z"/>
	<path style="fill:#999999;" d="M221.047,0l-0.398,0c-1.189,83.333-1.523,166.666-1.934,249.999
		c-0.308,83.333,0.089,166.667,0.257,250L220.084,1000l0.398,0l1.677-499.999c0.262-83.333,0.753-166.666,0.54-250
		C222.382,166.668,222.141,83.334,221.047,0z"/>
	<path style="fill:#999999;" d="M245.336,0l-0.199,0l-0.199,0c-1.188,83.333-1.523,166.666-1.934,249.999
		c-0.308,83.333,0.089,166.667,0.257,250L244.373,1000l0.199,0h0.199l1.677-499.999c0.262-83.333,0.753-166.666,0.54-250
		C246.671,166.668,246.431,83.334,245.336,0z"/>
	<path style="fill:#999999;" d="M269.625,0l-0.398,0c-1.189,83.333-1.523,166.666-1.934,249.999
		c-0.308,83.333,0.089,166.667,0.257,250L268.662,1000l0.398,0l1.677-499.999c0.262-83.333,0.753-166.666,0.54-250
		C270.96,166.668,270.72,83.334,269.625,0z"/>
	<path style="fill:#999999;" d="M293.914,0l-0.398,0c-1.189,83.333-1.523,166.666-1.934,249.999
		c-0.308,83.333,0.089,166.667,0.257,250L292.951,1000l0.398,0l1.677-499.999c0.262-83.333,0.753-166.666,0.54-250
		C295.249,166.668,295.009,83.334,293.914,0z"/>
	<path style="fill:#999999;" d="M318.203,0l-0.398,0c-1.189,83.333-1.523,166.666-1.934,249.999
		c-0.308,83.333,0.089,166.667,0.257,250L317.24,1000l0.398,0l1.677-499.999c0.262-83.333,0.753-166.666,0.54-250
		C319.538,166.668,319.298,83.334,318.203,0z"/>
	<path style="fill:#999999;" d="M342.492,0l-0.199,0l-0.199,0c-1.189,83.333-1.523,166.666-1.934,249.999
		c-0.308,83.333,0.089,166.667,0.257,250L341.529,1000l0.199,0h0.199l1.677-499.999c0.262-83.333,0.753-166.666,0.539-250
		C343.828,166.668,343.587,83.334,342.492,0z"/>
	<path style="fill:#999999;" d="M366.781,0l-0.398,0c-1.188,83.333-1.523,166.666-1.934,249.999
		c-0.308,83.333,0.089,166.667,0.257,250L365.818,1000l0.399,0l1.677-499.999c0.262-83.333,0.753-166.666,0.539-250
		C368.116,166.668,367.876,83.334,366.781,0z"/>
	<path style="fill:#999999;" d="M391.07,0l-0.398,0c-1.189,83.333-1.523,166.666-1.934,249.999
		c-0.308,83.333,0.089,166.667,0.257,250L390.107,1000l0.398,0l1.677-499.999c0.262-83.333,0.753-166.666,0.539-250
		C392.405,166.668,392.165,83.334,391.07,0z"/>
	<path style="fill:#999999;" d="M415.359,0l-0.399,0c-1.188,83.333-1.523,166.666-1.934,249.999
		c-0.308,83.333,0.089,166.667,0.257,250L414.396,1000l0.398,0l1.677-499.999c0.262-83.333,0.753-166.666,0.54-250
		C416.694,166.668,416.454,83.334,415.359,0z"/>
	<path style="fill:#999999;" d="M439.648,0l-0.398,0c-1.189,83.333-1.523,166.666-1.934,249.999
		c-0.308,83.333,0.089,166.667,0.257,250L438.685,1000l0.199,0h0.199l1.677-499.999c0.262-83.333,0.753-166.666,0.54-250
		C440.983,166.668,440.743,83.334,439.648,0z"/>
	<path style="fill:#999999;" d="M463.938,0l-0.398,0c-1.189,83.333-1.523,166.666-1.934,249.999
		c-0.308,83.333,0.089,166.667,0.257,250L462.974,1000l0.398,0l1.677-499.999c0.262-83.333,0.754-166.666,0.54-250
		C465.273,166.668,465.032,83.334,463.938,0z"/>
	<path style="fill:#999999;" d="M488.226,0l-0.398,0c-1.189,83.333-1.523,166.666-1.934,249.999
		c-0.308,83.333,0.089,166.667,0.257,250L487.263,1000l0.398,0l1.677-499.999c0.262-83.333,0.754-166.666,0.54-250
		C489.562,166.668,489.321,83.334,488.226,0z"/>
	<path style="fill:#999999;" d="M512.516,0l-0.398,0c-1.189,83.333-1.523,166.666-1.934,249.999
		c-0.308,83.333,0.089,166.667,0.257,250L511.552,1000l0.398,0l1.677-499.999c0.262-83.333,0.753-166.666,0.54-250
		C513.851,166.668,513.61,83.334,512.516,0z"/>
	<path style="fill:#999999;" d="M536.805,0l-0.398,0c-1.189,83.333-1.523,166.666-1.934,249.999
		c-0.308,83.333,0.089,166.667,0.257,250L535.841,1000l0.398,0l1.677-499.999c0.262-83.333,0.753-166.666,0.54-250
		C538.14,166.668,537.899,83.334,536.805,0z"/>
	<path style="fill:#999999;" d="M561.094,0l-0.199,0l-0.199,0c-1.189,83.333-1.523,166.666-1.934,249.999
		c-0.308,83.333,0.089,166.667,0.257,250L560.13,1000l0.398,0l1.677-499.999c0.262-83.333,0.753-166.666,0.539-250
		C562.429,166.668,562.188,83.334,561.094,0z"/>
	<path style="fill:#999999;" d="M585.383,0l-0.398,0c-1.188,83.333-1.523,166.666-1.934,249.999
		c-0.308,83.333,0.089,166.667,0.257,250L584.419,1000l0.399,0l1.677-499.999c0.262-83.333,0.753-166.666,0.54-250
		C586.718,166.668,586.477,83.334,585.383,0z"/>
	<path style="fill:#999999;" d="M609.672,0l-0.398,0c-1.189,83.333-1.523,166.666-1.934,249.999
		c-0.308,83.333,0.089,166.667,0.257,250L608.708,1000l0.398,0l1.677-499.999c0.262-83.333,0.753-166.666,0.539-250
		C611.007,166.668,610.766,83.334,609.672,0z"/>
	<path style="fill:#999999;" d="M633.961,0l-0.399,0c-1.188,83.333-1.523,166.666-1.934,249.999
		c-0.308,83.333,0.089,166.667,0.257,250L632.997,1000l0.398,0l1.677-499.999c0.262-83.333,0.753-166.666,0.54-250
		C635.296,166.668,635.055,83.334,633.961,0z"/>
	<path style="fill:#999999;" d="M658.25,0l-0.199,0l-0.199,0c-1.189,83.333-1.523,166.666-1.934,249.999
		c-0.308,83.333,0.089,166.667,0.257,250L657.286,1000l0.398,0l1.677-499.999c0.262-83.333,0.753-166.666,0.54-250
		C659.585,166.668,659.344,83.334,658.25,0z"/>
	<path style="fill:#999999;" d="M682.539,0l-0.398,0c-1.188,83.333-1.523,166.666-1.934,249.999
		c-0.308,83.333,0.089,166.667,0.257,250L681.575,1000l0.398,0l1.677-499.999c0.262-83.333,0.753-166.666,0.54-250
		C683.874,166.668,683.633,83.334,682.539,0z"/>
	<path style="fill:#999999;" d="M706.828,0l-0.398,0c-1.189,83.333-1.523,166.666-1.934,249.999
		c-0.308,83.333,0.089,166.667,0.257,250L705.864,1000l0.398,0l1.677-499.999c0.262-83.333,0.753-166.666,0.54-250
		C708.163,166.668,707.922,83.334,706.828,0z"/>
	<path style="fill:#999999;" d="M731.117,0l-0.398,0c-1.189,83.333-1.523,166.666-1.934,249.999
		c-0.308,83.333,0.089,166.667,0.257,250L730.153,1000l0.398,0l1.677-499.999c0.262-83.333,0.753-166.666,0.539-250
		C732.452,166.668,732.211,83.334,731.117,0z"/>
	<path style="fill:#999999;" d="M755.406,0l-0.199,0l-0.199,0c-1.188,83.333-1.523,166.666-1.934,249.999
		c-0.308,83.333,0.089,166.667,0.257,250L754.442,1000l0.399,0l1.677-499.999c0.262-83.333,0.753-166.666,0.539-250
		C756.741,166.668,756.5,83.334,755.406,0z"/>
	<path style="fill:#999999;" d="M779.695,0l-0.398,0c-1.189,83.333-1.523,166.666-1.934,249.999
		c-0.308,83.333,0.089,166.667,0.257,250L778.732,1000l0.398,0l1.677-499.999c0.262-83.333,0.753-166.666,0.539-250
		C781.03,166.668,780.789,83.334,779.695,0z"/>
	<path style="fill:#999999;" d="M803.984,0l-0.399,0c-1.188,83.333-1.523,166.666-1.934,249.999
		c-0.308,83.333,0.089,166.667,0.257,250L803.02,1000l0.398,0l1.677-499.999c0.262-83.333,0.753-166.666,0.539-250
		C805.319,166.668,805.078,83.334,803.984,0z"/>
	<path style="fill:#999999;" d="M828.273,0l-0.398,0c-1.189,83.333-1.523,166.666-1.934,249.999
		c-0.308,83.333,0.089,166.667,0.257,250L827.31,1000l0.398,0l1.677-499.999c0.262-83.333,0.753-166.666,0.539-250
		C829.608,166.668,829.367,83.334,828.273,0z"/>
	<path style="fill:#999999;" d="M852.562,0l-0.199,0l-0.199,0c-1.189,83.333-1.523,166.666-1.934,249.999
		c-0.308,83.333,0.089,166.667,0.257,250L851.599,1000l0.398,0l1.677-499.999c0.262-83.333,0.754-166.666,0.54-250
		C853.897,166.668,853.656,83.334,852.562,0z"/>
	<path style="fill:#999999;" d="M876.851,0l-0.398,0c-1.189,83.333-1.523,166.666-1.934,249.999
		c-0.308,83.333,0.089,166.667,0.257,250L875.888,1000l0.398,0l1.677-499.999c0.262-83.333,0.754-166.666,0.54-250
		C878.186,166.668,877.946,83.334,876.851,0z"/>
	<path style="fill:#999999;" d="M901.14,0l-0.398,0c-1.188,83.333-1.523,166.666-1.934,249.999
		c-0.308,83.333,0.089,166.667,0.257,250L900.177,1000l0.398,0l1.677-499.999c0.262-83.333,0.753-166.666,0.54-250
		C902.475,166.668,902.234,83.334,901.14,0z"/>
	<path style="fill:#999999;" d="M925.429,0l-0.398,0c-1.188,83.333-1.523,166.666-1.934,249.999
		c-0.308,83.333,0.089,166.667,0.257,250L924.466,1000l0.399,0l1.677-499.999c0.262-83.333,0.753-166.666,0.539-250
		C926.764,166.668,926.523,83.334,925.429,0z"/>
	<path style="fill:#999999;" d="M949.718,0l-0.199,0l-0.199,0c-1.189,83.333-1.523,166.666-1.934,249.999
		c-0.308,83.333,0.089,166.667,0.257,250L948.755,1000l0.398,0l1.677-499.999c0.262-83.333,0.753-166.666,0.54-250
		C951.053,166.668,950.813,83.334,949.718,0z"/>
	<path style="fill:#999999;" d="M974.007,0l-0.398,0c-1.188,83.333-1.523,166.666-1.934,249.999
		c-0.308,83.333,0.089,166.667,0.257,250L973.044,1000l0.398,0l1.677-499.999c0.262-83.333,0.753-166.666,0.54-250
		C975.342,166.668,975.101,83.334,974.007,0z"/>
	<path style="fill:#999999;" d="M999.947,250.001C999.631,166.668,999.391,83.334,998.296,0l-0.398,0
		c-1.189,83.333-1.523,166.666-1.934,249.999c-0.308,83.333,0.089,166.667,0.257,250L997.333,1000l0.398,0l1.677-499.999
		C999.67,416.668,1000.161,333.335,999.947,250.001z"/>
</g>
<defs>
	<filter id="Adobe_OpacityMaskFilter" filterUnits="userSpaceOnUse" x="0" y="0" width="1000" height="1000">
		<feFlood  style="flood-color:white;flood-opacity:1" result="back"/>
		<feBlend  in="SourceGraphic" in2="back" mode="normal"/>
	</filter>
</defs>
<!-- <mask maskUnits="userSpaceOnUse" x="0" y="0" width="1000" height="1000" id="SVGID_1_">
	<g style="filter:url(#Adobe_OpacityMaskFilter);">
		<defs>
			
				<filter id="Adobe_OpacityMaskFilter_00000172414292001180243830000006399704611327735170_" filterUnits="userSpaceOnUse" x="0" y="0" width="1000" height="1000">
				<feFlood  style="flood-color:white;flood-opacity:1" result="back"/>
				<feBlend  in="SourceGraphic" in2="back" mode="normal"/>
			</filter>
		</defs>
		<mask maskUnits="userSpaceOnUse" x="0" y="0" width="1000" height="1000" id="SVGID_1_">
			<g style="filter:url(#Adobe_OpacityMaskFilter_00000172414292001180243830000006399704611327735170_);">
			</g>
		</mask>
		
			<linearGradient id="SVGID_00000133488854718751155320000005241729627532002186_" gradientUnits="userSpaceOnUse" x1="352.7532" y1="500" x2="1171.2848" y2="500" gradientTransform="matrix(1.2217 0 0 1 -430.9586 0)">
			<stop  offset="0" style="stop-color:#000000"/>
			<stop  offset="0.0609" style="stop-color:#363636"/>
			<stop  offset="0.1293" style="stop-color:#6A6A6A"/>
			<stop  offset="0.1987" style="stop-color:#989898"/>
			<stop  offset="0.2677" style="stop-color:#BDBDBD"/>
			<stop  offset="0.3362" style="stop-color:#DADADA"/>
			<stop  offset="0.4042" style="stop-color:#EFEFEF"/>
			<stop  offset="0.4713" style="stop-color:#FBFBFB"/>
			<stop  offset="0.5367" style="stop-color:#FFFFFF"/>
			<stop  offset="0.5961" style="stop-color:#FBFBFB"/>
			<stop  offset="0.6545" style="stop-color:#EFEFEF"/>
			<stop  offset="0.7124" style="stop-color:#DCDCDC"/>
			<stop  offset="0.7701" style="stop-color:#C0C0C0"/>
			<stop  offset="0.8276" style="stop-color:#9C9C9C"/>
			<stop  offset="0.885" style="stop-color:#707070"/>
			<stop  offset="0.9423" style="stop-color:#3C3C3C"/>
			<stop  offset="0.9982" style="stop-color:#020202"/>
			<stop  offset="1" style="stop-color:#000000"/>
		</linearGradient>
		
			<rect style="mask:url(#SVGID_1_);fill:url(#SVGID_00000133488854718751155320000005241729627532002186_);" width="1000" height="1000"/>
	</g>
</mask>
<linearGradient id="SVGID_00000039847326774125887540000016543536912750699689_" gradientUnits="userSpaceOnUse" x1="352.7532" y1="500" x2="1171.2848" y2="500" gradientTransform="matrix(1.2217 0 0 1 -430.9586 0)">
	<stop  offset="0" style="stop-color:#FFFFFF"/>
	<stop  offset="0.5367" style="stop-color:#FFFFFF"/>
	<stop  offset="0.9946" style="stop-color:#FFFFFF"/>
	<stop  offset="1" style="stop-color:#FFFFFF"/>
</linearGradient> -->
<rect style="fill:url(#SVGID_00000039847326774125887540000016543536912750699689_);" width="1000" height="1000"/>
</svg>
